Radio-Canada-Bold.ufo
<glyph name="asterisk" format="2">
	<advance width="619"/>
	<unicode hex="002A"/>
	<outline>
		<contour>
			<point x="55" y="485" type="line"/>
			<point x="228" y="450" type="line"/>
			<point x="109" y="322" type="line"/>
			<point x="223" y="238" type="line"/>
			<point x="310" y="393" type="line"/>
			<point x="396" y="238" type="line"/>
			<point x="511" y="322" type="line"/>
			<point x="392" y="450" type="line"/>
			<point x="564" y="485" type="line"/>
			<point x="521" y="620" type="line"/>
			<point x="360" y="546" type="line"/>
			<point x="380" y="720" type="line"/>
			<point x="239" y="720" type="line"/>
			<point x="260" y="546" type="line"/>
			<point x="99" y="620" type="line"/>
		</contour>
	</outline>
</glyph>
<glyph name="hyphen" format="2">
	<advance width="396"/>
	<unicode hex="002D"/>
	<outline>
		<contour>
			<point x="55" y="217" type="line"/>
			<point x="341" y="217" type="line"/>
			<point x="341" y="338" type="line"/>
			<point x="55" y="338" type="line"/>
		</contour>
	</outline>
</glyph>
<glyph name="two" format="2">
	<advance width="600"/>
	<unicode hex="0032"/>
	<outline>
		<contour>
			<point x="37" y="595" type="curve"/>
			<point x="124" y="479" type="line"/>
			<point x="171" y="524"/>
			<point x="223" y="555"/>
			<point x="276" y="555" type="curve"/>
			<point x="337" y="555"/>
			<point x="368" y="518"/>
			<point x="368" y="473" type="curve"/>
			<point x="368" y="432"/>
			<point x="340" y="390"/>
			<point x="272" y="324" type="curve" smooth="yes"/>
			<point x="48" y="105" type="line"/>
			<point x="117" y="0" type="line"/>
			<point x="369" y="222" type="line" smooth="yes"/>
			<point x="485" y="325"/>
			<point x="532" y="399"/>
			<point x="532" y="493" type="curve"/>
			<point x="532" y="612"/>
			<point x="430" y="702"/>
			<point x="294" y="702" type="curve"/>
			<point x="191" y="702"/>
			<point x="104" y="656"/>
		</contour>
		<contour>
			<point x="48" y="0" type="line"/>
			<point x="542" y="0" type="line"/>
			<point x="542" y="140" type="line"/>
			<point x="134" y="140" type="line"/>
			<point x="48" y="105" type="line"/>
		</contour>
	</outline>
</glyph>
<glyph name="nine" format="2">
	<advance width="600"/>
	<unicode hex="0039"/>
	<outline>
		<contour>
			<point x="35" y="465" type="curve" smooth="yes"/>
			<point x="35" y="330"/>
			<point x="127" y="241"/>
			<point x="251" y="241" type="curve" smooth="yes"/>
			<point x="319" y="241"/>
			<point x="382" y="275"/>
			<point x="414" y="326" type="curve"/>
			<point x="414" y="420" type="line"/>
			<point x="381" y="391"/>
			<point x="331" y="365"/>
			<point x="289" y="365" type="curve"/>
			<point x="230" y="365"/>
			<point x="189" y="405"/>
			<point x="189" y="468" type="curve" smooth="yes"/>
			<point x="189" y="523"/>
			<point x="229" y="567"/>
			<point x="285" y="567" type="curve"/>
			<point x="350" y="567"/>
			<point x="405" y="507"/>
			<point x="405" y="370" type="curve" smooth="yes"/>
			<point x="405" y="191"/>
			<point x="319" y="121"/>
			<point x="239" y="121" type="curve"/>
			<point x="203" y="121"/>
			<point x="169" y="132"/>
			<point x="134" y="161" type="curve"/>
			<point x="65" y="37" type="line"/>
			<point x="115" y="3"/>
			<point x="177" y="-12"/>
			<point x="242" y="-12" type="curve" smooth="yes"/>
			<point x="411" y="-12"/>
			<point x="563" y="117"/>
			<point x="563" y="370" type="curve" smooth="yes"/>
			<point x="563" y="580"/>
			<point x="447" y="702"/>
			<point x="290" y="702" type="curve"/>
			<point x="136" y="702"/>
			<point x="35" y="603"/>
		</contour>
	</outline>
</glyph>
<glyph name="C" format="2">
	<advance width="653"/>
	<unicode hex="0043"/>
	<anchor x="377" y="690" name="top"/>
	<anchor x="377" y="0" name="bottom"/>
	<outline>
		<contour>
			<point x="45" y="345" type="curve" smooth="yes"/>
			<point x="45" y="122"/>
			<point x="204" y="-12"/>
			<point x="389" y="-12" type="curve" smooth="yes"/>
			<point x="480" y="-12"/>
			<point x="550" y="15"/>
			<point x="618" y="69" type="curve"/>
			<point x="526" y="193" type="line"/>
			<point x="485" y="160"/>
			<point x="437" y="138"/>
			<point x="383" y="138" type="curve" smooth="yes"/>
			<point x="286" y="138"/>
			<point x="208" y="207"/>
			<point x="208" y="345" type="curve" smooth="yes"/>
			<point x="208" y="483"/>
			<point x="286" y="552"/>
			<point x="382" y="552" type="curve" smooth="yes"/>
			<point x="437" y="552"/>
			<point x="484" y="532"/>
			<point x="526" y="504" type="curve"/>
			<point x="613" y="632" type="line"/>
			<point x="543" y="678"/>
			<point x="474" y="702"/>
			<point x="387" y="702" type="curve" smooth="yes"/>
			<point x="204" y="702"/>
			<point x="45" y="568"/>
		</contour>
	</outline>
</glyph>
<glyph name="D" format="2">
	<advance width="724"/>
	<unicode hex="0044"/>
	<anchor x="322" y="690" name="top"/>
	<outline>
		<contour>
			<point x="85" y="0" type="line"/>
			<point x="245" y="0" type="line"/>
			<point x="245" y="690" type="line"/>
			<point x="85" y="690" type="line"/>
		</contour>
		<contour>
			<point x="159" y="0" type="line"/>
			<point x="347" y="0" type="line" smooth="yes"/>
			<point x="534" y="0"/>
			<point x="679" y="128"/>
			<point x="679" y="345" type="curve" smooth="yes"/>
			<point x="679" y="562"/>
			<point x="534" y="690"/>
			<point x="347" y="690" type="curve" smooth="yes"/>
			<point x="159" y="690" type="line"/>
			<point x="159" y="550" type="line"/>
			<point x="332" y="550" type="line" smooth="yes"/>
			<point x="442" y="550"/>
			<point x="516" y="482"/>
			<point x="516" y="345" type="curve" smooth="yes"/>
			<point x="516" y="208"/>
			<point x="442" y="140"/>
			<point x="332" y="140" type="curve" smooth="yes"/>
			<point x="159" y="140" type="line"/>
		</contour>
	</outline>
</glyph>
<glyph name="I" format="2">
	<advance width="470"/>
	<unicode hex="0049"/>
	<anchor x="235" y="690" name="top"/>
	<anchor x="235" y="0" name="bottom"/>
	<anchor x="283" y="0" name="ogonek"/>
	<outline>
		<contour>
			<point x="65" y="0" type="line"/>
			<point x="405" y="0" type="line"/>
			<point x="405" y="120" type="line"/>
			<point x="65" y="120" type="line"/>
		</contour>
		<contour>
			<point x="65" y="570" type="line"/>
			<point x="405" y="570" type="line"/>
			<point x="405" y="690" type="line"/>
			<point x="65" y="690" type="line"/>
		</contour>
		<contour>
			<point x="155" y="0" type="line"/>
			<point x="315" y="0" type="line"/>
			<point x="315" y="690" type="line"/>
			<point x="155" y="690" type="line"/>
		</contour>
	</outline>
</glyph>
<glyph name="M" format="2">
	<advance width="854"/>
	<unicode hex="004D"/>
	<outline>
		<contour>
			<point x="85" y="0" type="line"/>
			<point x="238" y="0" type="line"/>
			<point x="238" y="690" type="line"/>
			<point x="85" y="690" type="line"/>
		</contour>
		<contour>
			<point x="157" y="690" type="line"/>
			<point x="374" y="141" type="line"/>
			<point x="435" y="141" type="line"/>
			<point x="435" y="335" type="line"/>
			<point x="304" y="690" type="line"/>
		</contour>
		<contour>
			<point x="419" y="141" type="line"/>
			<point x="480" y="141" type="line"/>
			<point x="697" y="690" type="line"/>
			<point x="550" y="690" type="line"/>
			<point x="419" y="335" type="line"/>
		</contour>
		<contour>
			<point x="616" y="0" type="line"/>
			<point x="769" y="0" type="line"/>
			<point x="769" y="690" type="line"/>
			<point x="616" y="690" type="line"/>
		</contour>
	</outline>
</glyph>
<glyph name="V" format="2">
	<advance width="656"/>
	<unicode hex="0056"/>
	<outline>
		<contour>
			<point x="0" y="690" type="line"/>
			<point x="251" y="0" type="line"/>
			<point x="343" y="0" type="line"/>
			<point x="347" y="156" type="line"/>
			<point x="170" y="690" type="line"/>
		</contour>
		<contour>
			<point x="313" y="156" type="line"/>
			<point x="321" y="0" type="line"/>
			<point x="405" y="0" type="line"/>
			<point x="656" y="690" type="line"/>
			<point x="490" y="690" type="line"/>
		</contour>
	</outline>
</glyph>
<glyph name="bracketleft" format="2">
	<advance width="320"/>
	<unicode hex="005B"/>
	<outline>
		<contour>
			<point x="85" y="-295" type="line"/>
			<point x="225" y="-295" type="line"/>
			<point x="225" y="830" type="line"/>
			<point x="85" y="830" type="line"/>
		</contour>
		<contour>
			<point x="85" y="-295" type="line"/>
			<point x="370" y="-295" type="line"/>
			<point x="370" y="-175" type="line"/>
			<point x="85" y="-175" type="line"/>
		</contour>
		<contour>
			<point x="85" y="710" type="line"/>
			<point x="370" y="710" type="line"/>
			<point x="370" y="830" type="line"/>
			<point x="85" y="830" type="line"/>
		</contour>
	</outline>
</glyph>
<glyph name="bracketright" format="2">
	<advance width="320"/>
	<unicode hex="005D"/>
	<outline>
		<contour>
			<point x="-50" y="-295" type="line"/>
			<point x="235" y="-295" type="line"/>
			<point x="235" y="-175" type="line"/>
			<point x="-50" y="-175" type="line"/>
		</contour>
		<contour>
			<point x="-50" y="710" type="line"/>
			<point x="235" y="710" type="line"/>
			<point x="235" y="830" type="line"/>
			<point x="-50" y="830" type="line"/>
		</contour>
		<contour>
			<point x="95" y="-295" type="line"/>
			<point x="235" y="-295" type="line"/>
			<point x="235" y="830" type="line"/>
			<point x="95" y="830" type="line"/>
		</contour>
	</outline>
</glyph>
<glyph name="c" format="2">
	<advance width="497"/>
	<unicode hex="0063"/>
	<guideline x="468" y="495" angle="90" identifier="RPLxnaDm0o"/>
	<anchor x="301" y="525" name="top"/>
	<anchor x="289" y="0" name="bottom"/>
	<outline>
		<contour>
			<point x="38" y="252" type="curve" smooth="yes"/>
			<point x="38" y="91"/>
			<point x="142" y="-12"/>
			<point x="299" y="-12" type="curve" smooth="yes"/>
			<point x="370" y="-12"/>
			<point x="428" y="6"/>
			<point x="472" y="30" type="curve"/>
			<point x="418" y="149" type="line"/>
			<point x="393" y="132"/>
			<point x="355" y="120"/>
			<point x="321" y="120" type="curve" smooth="yes"/>
			<point x="245" y="120"/>
			<point x="190" y="167"/>
			<point x="190" y="257" type="curve" smooth="yes"/>
			<point x="190" y="360"/>
			<point x="245" y="407"/>
			<point x="315" y="407" type="curve" smooth="yes"/>
			<point x="352" y="407"/>
			<point x="388.7234" y="395"/>
			<point x="414" y="376" type="curve"/>
			<point x="468" y="495" type="line"/>
			<point x="423.58553" y="519"/>
			<point x="372" y="537"/>
			<point x="311" y="537" type="curve" smooth="yes"/>
			<point x="151" y="537"/>
			<point x="38" y="426"/>
		</contour>
	</outline>
</glyph>
<glyph name="h" format="2">
	<advance width="634"/>
	<unicode hex="0068"/>
	<anchor x="150" y="720" name="top"/>
	<outline>
		<contour>
			<point x="75" y="0" type="line"/>
			<point x="225" y="0" type="line"/>
			<point x="225" y="735" type="line"/>
			<point x="75" y="715" type="line"/>
		</contour>
		<contour>
			<point x="210" y="346" type="line"/>
			<point x="241" y="381"/>
			<point x="285" y="399"/>
			<point x="325" y="399" type="curve"/>
			<point x="377" y="399"/>
			<point x="414" y="369"/>
			<point x="414" y="303" type="curve" smooth="yes"/>
			<point x="414" y="0" type="line"/>
			<point x="564" y="0" type="line"/>
			<point x="564" y="326" type="line" smooth="yes"/>
			<point x="564" y="467"/>
			<point x="473" y="537"/>
			<point x="380" y="537" type="curve"/>
			<point x="308" y="537"/>
			<point x="251" y="498"/>
			<point x="210" y="442" type="curve"/>
		</contour>
	</outline>
</glyph>
<glyph name="p" format="2">
	<advance width="610"/>
	<unicode hex="0070"/>
	<outline>
		<contour>
			<point x="60" y="525" type="line"/>
			<point x="68" y="476" type="line" smooth="yes"/>
			<point x="73" y="447"/>
			<point x="75" y="428"/>
			<point x="75" y="400" type="curve" smooth="yes"/>
			<point x="75" y="-200" type="line"/>
			<point x="225" y="-180" type="line"/>
			<point x="225" y="425" type="line"/>
			<point x="206" y="525" type="line"/>
		</contour>
		<contour>
			<point x="173" y="222" type="line"/>
			<point x="173" y="80.03347"/>
			<point x="247" y="-12"/>
			<point x="351" y="-12" type="curve" smooth="yes"/>
			<point x="476.8211" y="-12"/>
			<point x="572" y="84"/>
			<point x="572" y="261" type="curve" smooth="yes"/>
			<point x="572" y="430"/>
			<point x="480.65464" y="537"/>
			<point x="375" y="537" type="curve" smooth="yes"/>
			<point x="305" y="537"/>
			<point x="249.79412" y="498"/>
			<point x="210" y="442" type="curve"/>
			<point x="210" y="343" type="line"/>
			<point x="241" y="380"/>
			<point x="285" y="401"/>
			<point x="325" y="401" type="curve" smooth="yes"/>
			<point x="382.92553" y="401"/>
			<point x="422" y="353"/>
			<point x="422" y="253" type="curve" smooth="yes"/>
			<point x="422" y="159"/>
			<point x="374.82407" y="106"/>
			<point x="311" y="106" type="curve" smooth="yes"/>
			<point x="258" y="106"/>
			<point x="225" y="144"/>
			<point x="225" y="227" type="curve"/>
		</contour>
	</outline>
</glyph>
<glyph name="v" format="2">
	<advance width="530"/>
	<unicode hex="0076"/>
	<outline>
		<contour>
			<point x="0" y="525" type="line"/>
			<point x="196" y="0" type="line"/>
			<point x="294" y="0" type="line"/>
			<point x="294" y="110" type="line"/>
			<point x="162" y="525" type="line"/>
		</contour>
		<contour>
			<point x="242" y="110" type="line"/>
			<point x="242" y="0" type="line"/>
			<point x="334" y="0" type="line"/>
			<point x="530" y="525" type="line"/>
			<point x="372" y="525" type="line"/>
		</contour>
	</outline>
</glyph>
<glyph name="w" format="2">
	<advance width="820"/>
	<unicode hex="0077"/>
	<anchor x="410" y="525" name="top"/>
	<outline>
		<contour>
			<point x="20" y="525" type="line"/>
			<point x="184" y="0" type="line"/>
			<point x="286" y="0" type="line"/>
			<point x="286" y="107" type="line"/>
			<point x="180" y="525" type="line"/>
		</contour>
		<contour>
			<point x="230" y="107" type="line"/>
			<point x="230" y="0" type="line"/>
			<point x="316" y="0" type="line"/>
			<point x="436" y="362" type="line"/>
			<point x="436" y="525" type="line"/>
			<point x="350" y="525" type="line"/>
		</contour>
		<contour>
			<point x="384" y="362" type="line"/>
			<point x="504" y="0" type="line"/>
			<point x="596" y="0" type="line"/>
			<point x="596" y="107" type="line"/>
			<point x="474" y="525" type="line"/>
			<point x="384" y="525" type="line"/>
		</contour>
		<contour>
			<point x="540" y="107" type="line"/>
			<point x="540" y="0" type="line"/>
			<point x="636" y="0" type="line"/>
			<point x="800" y="525" type="line"/>
			<point x="644" y="525" type="line"/>
		</contour>
	</outline>
</glyph>
<glyph name="asciitilde" format="2">
	<advance width="600"/>
	<unicode hex="007E"/>
	<outline>
		<contour>
			<point x="76" y="290" type="curve"/>
			<point x="146" y="290" type="line"/>
			<point x="158" y="346"/>
			<point x="178" y="364"/>
			<point x="203" y="364" type="curve"/>
			<point x="256" y="364"/>
			<point x="302" y="285"/>
			<point x="387" y="285" type="curve" smooth="yes"/>
			<point x="463" y="285"/>
			<point x="518" y="342"/>
			<point x="524" y="470" type="curve"/>
			<point x="454" y="470" type="line"/>
			<point x="443" y="414"/>
			<point x="422" y="396"/>
			<point x="397" y="396" type="curve"/>
			<point x="343" y="396"/>
			<point x="297" y="475"/>
			<point x="213" y="475" type="curve" smooth="yes"/>
			<point x="137" y="475"/>
			<point x="81" y="418"/>
		</contour>
	</outline>
</glyph>
<glyph name="brokenbar" format="2">
	<advance width="310"/>
	<unicode hex="00A6"/>
	<outline>
		<contour>
			<point x="85" y="-215" type="line"/>
			<point x="225" y="-215" type="line"/>
			<point x="225" y="150" type="line"/>
			<point x="85" y="150" type="line"/>
		</contour>
		<contour>
			<point x="85" y="355" type="line"/>
			<point x="225" y="355" type="line"/>
			<point x="225" y="720" type="line"/>
			<point x="85" y="720" type="line"/>
		</contour>
	</outline>
</glyph>
<glyph name="ordfeminine" format="2">
	<advance width="440"/>
	<unicode hex="00AA"/>
	<outline>
		<contour>
			<point x="40" y="394" type="curve" smooth="yes"/>
			<point x="40" y="322"/>
			<point x="95" y="278"/>
			<point x="161" y="278" type="curve" smooth="yes"/>
			<point x="219" y="278"/>
			<point x="270" y="310"/>
			<point x="301" y="355" type="curve"/>
			<point x="301" y="430" type="line"/>
			<point x="270" y="390"/>
			<point x="235" y="365"/>
			<point x="195" y="365" type="curve" smooth="yes"/>
			<point x="168" y="365"/>
			<point x="150" y="380"/>
			<point x="150" y="405" type="curve" smooth="yes"/>
			<point x="150" y="430"/>
			<point x="175" y="454"/>
			<point x="249" y="460" type="curve" smooth="yes"/>
			<point x="295" y="464" type="line"/>
			<point x="295" y="536" type="line"/>
			<point x="245" y="534" type="line" smooth="yes"/>
			<point x="92" y="528"/>
			<point x="40" y="464"/>
		</contour>
		<contour>
			<point x="45" y="654" type="curve"/>
			<point x="85" y="566" type="line"/>
			<point x="115" y="584"/>
			<point x="158" y="602"/>
			<point x="195" y="602" type="curve" smooth="yes"/>
			<point x="242" y="602"/>
			<point x="268" y="577"/>
			<point x="268" y="530" type="curve" smooth="yes"/>
			<point x="268" y="354" type="line"/>
			<point x="285" y="290" type="line"/>
			<point x="395" y="290" type="line"/>
			<point x="388" y="325" type="line" smooth="yes"/>
			<point x="384" y="347"/>
			<point x="383" y="364"/>
			<point x="383" y="386" type="curve" smooth="yes"/>
			<point x="383" y="540" type="line" smooth="yes"/>
			<point x="383" y="646"/>
			<point x="311" y="702"/>
			<point x="205" y="702" type="curve" smooth="yes"/>
			<point x="145" y="702"/>
			<point x="85" y="678"/>
		</contour>
	</outline>
</glyph>
<glyph name="cedilla" format="2">
	<advance width="600"/>
	<unicode hex="00B8"/>
	<anchor x="300" y="0" name="_bottom"/>
	<outline>
		<contour>
			<point x="220" y="-228" type="line"/>
			<point x="256" y="-228" type="line" smooth="yes"/>
			<point x="366" y="-228"/>
			<point x="408" y="-184"/>
			<point x="408" y="-127" type="curve" smooth="yes"/>
			<point x="408" y="-90"/>
			<point x="385.26794" y="-60.0462"/>
			<point x="327" y="-50" type="curve"/>
			<point x="338" y="9" type="line"/>
			<point x="264" y="15" type="line"/>
			<point x="242" y="-93" type="line"/>
			<point x="262" y="-95" type="line" smooth="yes"/>
			<point x="295.10742" y="-98.31074"/>
			<point x="308" y="-111"/>
			<point x="308" y="-129" type="curve" smooth="yes"/>
			<point x="308" y="-151"/>
			<point x="295" y="-168"/>
			<point x="234" y="-168" type="curve"/>
		</contour>
	</outline>
</glyph>
<glyph name="threequarters" format="2">
	<advance width="808"/>
	<unicode hex="00BE"/>
	<outline>
		<component base="threesuperior" xOffset="-45"/>
		<component base="fraction" xOffset="132"/>
		<contour>
			<point x="436" y="127" type="line"/>
			<point x="489" y="57" type="line"/>
			<point x="685" y="398" type="line"/>
			<point x="595" y="398" type="line"/>
		</contour>
		<contour>
			<point x="436" y="57" type="line"/>
			<point x="798" y="57" type="line"/>
			<point x="798" y="150" type="line"/>
			<point x="467" y="150" type="line"/>
			<point x="436" y="127" type="line"/>
		</contour>
		<contour>
			<point x="631" y="0" type="line"/>
			<point x="737" y="0" type="line"/>
			<point x="737" y="398" type="line"/>
			<point x="631" y="398" type="line"/>
		</contour>
	</outline>
</glyph>
<glyph name="Oslash" format="2">
	<advance width="744"/>
	<unicode hex="00D8"/>
	<anchor x="372" y="690" name="top"/>
	<outline>
		<component base="O"/>
		<contour>
			<point x="25" y="70" type="line"/>
			<point x="110" y="-12" type="line"/>
			<point x="719" y="620" type="line"/>
			<point x="634" y="702" type="line"/>
		</contour>
	</outline>
</glyph>
<glyph name="ring" format="2">
	<advance width="600"/>
	<unicode hex="02DA"/>
	<anchor x="300" y="525" name="_top"/>
	<outline>
		<contour>
			<point x="179" y="709" type="curve" smooth="yes"/>
			<point x="179" y="638"/>
			<point x="232" y="590"/>
			<point x="300" y="590" type="curve" smooth="yes"/>
			<point x="368" y="590"/>
			<point x="422" y="638"/>
			<point x="422" y="709" type="curve" smooth="yes"/>
			<point x="422" y="780"/>
			<point x="368" y="828"/>
			<point x="300" y="828" type="curve" smooth="yes"/>
			<point x="232" y="828"/>
			<point x="179" y="780"/>
		</contour>
		<contour>
			<point x="262" y="709" type="curve" smooth="yes"/>
			<point x="262" y="737"/>
			<point x="277" y="756"/>
			<point x="300" y="756" type="curve" smooth="yes"/>
			<point x="324" y="756"/>
			<point x="339" y="737"/>
			<point x="339" y="709" type="curve" smooth="yes"/>
			<point x="339" y="680"/>
			<point x="324" y="662"/>
			<point x="300" y="662" type="curve" smooth="yes"/>
			<point x="277" y="662"/>
			<point x="262" y="680"/>
		</contour>
	</outline>
</glyph>
<glyph name="ogonek" format="2">
	<advance width="600"/>
	<unicode hex="02DB"/>
	<anchor x="300" y="0" name="_ogonek"/>
	<outline>
		<contour>
			<point x="240" y="-110" type="curve" smooth="yes"/>
			<point x="240" y="-165"/>
			<point x="280" y="-197"/>
			<point x="340" y="-197" type="curve" smooth="yes"/>
			<point x="375" y="-197"/>
			<point x="405" y="-185"/>
			<point x="430" y="-170" type="curve"/>
			<point x="400" y="-99" type="line"/>
			<point x="384" y="-109"/>
			<point x="370" y="-117"/>
			<point x="352" y="-117" type="curve" smooth="yes"/>
			<point x="334" y="-117"/>
			<point x="325" y="-105"/>
			<point x="325" y="-90" type="curve" smooth="yes"/>
			<point x="325" y="-60"/>
			<point x="350" y="-30"/>
			<point x="420" y="0" type="curve"/>
			<point x="300" y="0" type="line"/>
			<point x="260" y="-30"/>
			<point x="240" y="-65"/>
		</contour>
	</outline>
</glyph>
<glyph name="ringcomb" format="2">
	<advance width="0"/>
	<unicode hex="030A"/>
	<anchor x="0" y="525" name="_top"/>
	<anchor x="0" y="787" name="top"/>
	<outline>
		<contour>
			<point x="-121" y="709" type="curve" smooth="yes"/>
			<point x="-121" y="638"/>
			<point x="-68" y="590"/>
			<point x="0" y="590" type="curve" smooth="yes"/>
			<point x="68" y="590"/>
			<point x="122" y="638"/>
			<point x="122" y="709" type="curve" smooth="yes"/>
			<point x="122" y="780"/>
			<point x="68" y="828"/>
			<point x="0" y="828" type="curve" smooth="yes"/>
			<point x="-68" y="828"/>
			<point x="-121" y="780"/>
		</contour>
		<contour>
			<point x="-38" y="709" type="curve" smooth="yes"/>
			<point x="-38" y="737"/>
			<point x="-23" y="756"/>
			<point x="0" y="756" type="curve" smooth="yes"/>
			<point x="24" y="756"/>
			<point x="39" y="737"/>
			<point x="39" y="709" type="curve" smooth="yes"/>
			<point x="39" y="680"/>
			<point x="24" y="662"/>
			<point x="0" y="662" type="curve" smooth="yes"/>
			<point x="-23" y="662"/>
			<point x="-38" y="680"/>
		</contour>
	</outline>
</glyph>
<glyph name="commaaccentcomb" format="2">
	<advance width="0"/>
	<unicode hex="0326"/>
	<anchor x="0" y="0" name="_bottom"/>
	<outline>
		<contour>
			<point x="-60" y="-350" type="line"/>
			<point x="15" y="-350" type="line"/>
			<point x="52" y="-258" type="line" smooth="yes"/>
			<point x="70" y="-214"/>
			<point x="80" y="-186"/>
			<point x="80" y="-151" type="curve" smooth="yes"/>
			<point x="80" y="-103"/>
			<point x="47" y="-70"/>
			<point x="0" y="-70" type="curve" smooth="yes"/>
			<point x="-47" y="-70"/>
			<point x="-80" y="-103"/>
			<point x="-80" y="-148" type="curve" smooth="yes"/>
			<point x="-80" y="-187"/>
			<point x="-57" y="-213"/>
			<point x="-28" y="-222" type="curve"/>
		</contour>
	</outline>
</glyph>
<glyph name="daggerdbl" format="2">
	<advance width="480"/>
	<unicode hex="2021"/>
	<outline>
		<contour>
			<point x="170" y="-185" type="line"/>
			<point x="310" y="-185" type="line"/>
			<point x="310" y="720" type="line"/>
			<point x="170" y="720" type="line"/>
		</contour>
		<contour>
			<point x="30" y="405" type="line"/>
			<point x="450" y="405" type="line"/>
			<point x="450" y="525" type="line"/>
			<point x="30" y="525" type="line"/>
		</contour>
		<contour>
			<point x="30" y="10" type="line"/>
			<point x="450" y="10" type="line"/>
			<point x="450" y="130" type="line"/>
			<point x="30" y="130" type="line"/>
		</contour>
	</outline>
</glyph>
<glyph name="perthousand" format="2">
	<advance width="1400"/>
	<unicode hex="2030"/>
	<outline>
		<contour>
			<point x="70" y="518" type="curve" smooth="yes"/>
			<point x="70" y="406"/>
			<point x="148" y="334"/>
			<point x="249" y="334" type="curve" smooth="yes"/>
			<point x="350" y="334"/>
			<point x="428" y="406"/>
			<point x="428" y="518" type="curve" smooth="yes"/>
			<point x="428" y="630"/>
			<point x="350" y="702"/>
			<point x="249" y="702" type="curve" smooth="yes"/>
			<point x="148" y="702"/>
			<point x="70" y="630"/>
		</contour>
		<contour>
			<point x="175" y="518" type="curve" smooth="yes"/>
			<point x="175" y="575"/>
			<point x="208" y="607"/>
			<point x="249" y="607" type="curve" smooth="yes"/>
			<point x="290" y="607"/>
			<point x="323" y="575"/>
			<point x="323" y="518" type="curve" smooth="yes"/>
			<point x="323" y="461"/>
			<point x="290" y="429"/>
			<point x="249" y="429" type="curve" smooth="yes"/>
			<point x="208" y="429"/>
			<point x="175" y="461"/>
		</contour>
		<contour>
			<point x="201" y="0" type="line"/>
			<point x="341" y="0" type="line"/>
			<point x="791" y="690" type="line"/>
			<point x="651" y="690" type="line"/>
		</contour>
		<contour>
			<point x="564" y="172" type="curve" smooth="yes"/>
			<point x="564" y="60"/>
			<point x="642" y="-12"/>
			<point x="743" y="-12" type="curve" smooth="yes"/>
			<point x="844" y="-12"/>
			<point x="922" y="60"/>
			<point x="922" y="172" type="curve" smooth="yes"/>
			<point x="922" y="284"/>
			<point x="844" y="356"/>
			<point x="743" y="356" type="curve" smooth="yes"/>
			<point x="642" y="356"/>
			<point x="564" y="284"/>
		</contour>
		<contour>
			<point x="669" y="172" type="curve" smooth="yes"/>
			<point x="669" y="229"/>
			<point x="702" y="261"/>
			<point x="743" y="261" type="curve" smooth="yes"/>
			<point x="784" y="261"/>
			<point x="817" y="229"/>
			<point x="817" y="172" type="curve" smooth="yes"/>
			<point x="817" y="115"/>
			<point x="784" y="83"/>
			<point x="743" y="83" type="curve" smooth="yes"/>
			<point x="702" y="83"/>
			<point x="669" y="115"/>
		</contour>
		<contour>
			<point x="972" y="172" type="curve" smooth="yes"/>
			<point x="972" y="60"/>
			<point x="1050" y="-12"/>
			<point x="1151" y="-12" type="curve" smooth="yes"/>
			<point x="1252" y="-12"/>
			<point x="1330" y="60"/>
			<point x="1330" y="172" type="curve" smooth="yes"/>
			<point x="1330" y="284"/>
			<point x="1252" y="356"/>
			<point x="1151" y="356" type="curve" smooth="yes"/>
			<point x="1050" y="356"/>
			<point x="972" y="284"/>
		</contour>
		<contour>
			<point x="1077" y="172" type="curve" smooth="yes"/>
			<point x="1077" y="229"/>
			<point x="1110" y="261"/>
			<point x="1151" y="261" type="curve" smooth="yes"/>
			<point x="1192" y="261"/>
			<point x="1225" y="229"/>
			<point x="1225" y="172" type="curve" smooth="yes"/>
			<point x="1225" y="115"/>
			<point x="1192" y="83"/>
			<point x="1151" y="83" type="curve" smooth="yes"/>
			<point x="1110" y="83"/>
			<point x="1077" y="115"/>
		</contour>
	</outline>
</glyph>
<glyph name="colonsign" format="2">
	<advance width="653"/>
	<unicode hex="20A1"/>
	<outline>
		<component base="C"/>
		<contour>
			<point x="215" y="-125" type="line"/>
			<point x="305" y="-125" type="line"/>
			<point x="405" y="810" type="line"/>
			<point x="315" y="810" type="line"/>
		</contour>
		<contour>
			<point x="345" y="-125" type="line"/>
			<point x="435" y="-125" type="line"/>
			<point x="535" y="810" type="line"/>
			<point x="445" y="810" type="line"/>
		</contour>
	</outline>
</glyph>
<glyph name="lira" format="2">
	<advance width="600"/>
	<unicode hex="20A4"/>
	<outline>
		<contour>
			<point x="50" y="0" type="line"/>
			<point x="550" y="0" type="line"/>
			<point x="550" y="130" type="line"/>
			<point x="50" y="130" type="line"/>
		</contour>
		<contour>
			<point x="50" y="30" type="line"/>
			<point x="180" y="60"/>
			<point x="290" y="150"/>
			<point x="290" y="260" type="curve" smooth="yes"/>
			<point x="290" y="340"/>
			<point x="260" y="380"/>
			<point x="260" y="454" type="curve" smooth="yes"/>
			<point x="260" y="513"/>
			<point x="300" y="559"/>
			<point x="360" y="559" type="curve" smooth="yes"/>
			<point x="410" y="559"/>
			<point x="450" y="536"/>
			<point x="477" y="504" type="curve"/>
			<point x="573" y="616" type="line"/>
			<point x="520" y="668"/>
			<point x="430" y="702"/>
			<point x="350" y="702" type="curve" smooth="yes"/>
			<point x="210" y="702"/>
			<point x="105" y="620"/>
			<point x="105" y="464" type="curve" smooth="yes"/>
			<point x="105" y="380"/>
			<point x="140" y="340"/>
			<point x="140" y="260" type="curve" smooth="yes"/>
			<point x="140" y="200"/>
			<point x="100" y="150"/>
			<point x="50" y="130" type="curve"/>
		</contour>
		<contour>
			<point x="50" y="190" type="line"/>
			<point x="450" y="190" type="line"/>
			<point x="450" y="308" type="line"/>
			<point x="50" y="308" type="line"/>
		</contour>
		<contour>
			<point x="50" y="358" type="line"/>
			<point x="450" y="358" type="line"/>
			<point x="450" y="478" type="line"/>
			<point x="50" y="478" type="line"/>
		</contour>
	</outline>
</glyph>
<glyph name="dong" format="2">
	<advance width="610"/>
	<unicode hex="20AB"/>
	<outline>
		<contour>
			<point x="38" y="314" type="curve" smooth="yes"/>
			<point x="38" y="215"/>
			<point x="119" y="108"/>
			<point x="225" y="108" type="curve" smooth="yes"/>
			<point x="295" y="108"/>
			<point x="360" y="147"/>
			<point x="400" y="203" type="curve"/>
			<point x="400" y="302" type="line"/>
			<point x="369" y="265"/>
			<point x="315" y="244"/>
			<point x="275" y="244" type="curve" smooth="yes"/>
			<point x="217" y="244"/>
			<point x="188" y="292"/>
			<point x="188" y="322" type="curve" smooth="yes"/>
			<point x="188" y="386"/>
			<point x="235" y="419"/>
			<point x="299" y="419" type="curve" smooth="yes"/>
			<point x="352" y="419"/>
			<point x="386" y="391"/>
			<point x="386" y="348" type="curve"/>
			<point x="437" y="353" type="line"/>
			<point x="437" y="455"/>
			<point x="363" y="537"/>
			<point x="259" y="537" type="curve" smooth="yes"/>
			<point x="133" y="537"/>
			<point x="38" y="461"/>
		</contour>
		<contour>
			<point x="404" y="120" type="line"/>
			<point x="550" y="120" type="line"/>
			<point x="542" y="169" type="line" smooth="yes"/>
			<point x="537" y="198"/>
			<point x="535" y="217"/>
			<point x="535" y="245" type="curve" smooth="yes"/>
			<point x="535" y="735" type="line"/>
			<point x="385" y="715" type="line"/>
			<point x="385" y="220" type="line"/>
		</contour>
		<contour>
			<point x="31" y="-1" type="line"/>
			<point x="567" y="-1" type="line"/>
			<point x="567" y="78" type="line"/>
			<point x="31" y="78" type="line"/>
		</contour>
		<contour>
			<point x="274" y="579" type="line"/>
			<point x="600" y="579" type="line"/>
			<point x="600" y="658" type="line"/>
			<point x="274" y="658" type="line"/>
		</contour>
	</outline>
</glyph>
<glyph name="Euro" format="2">
	<advance width="600"/>
	<unicode hex="20AC"/>
	<outline>
		<contour>
			<point x="80" y="345" type="curve" smooth="yes"/>
			<point x="80" y="122"/>
			<point x="215" y="-12"/>
			<point x="384" y="-12" type="curve" smooth="yes"/>
			<point x="475" y="-12"/>
			<point x="545" y="15"/>
			<point x="603" y="69" type="curve"/>
			<point x="521" y="193" type="line"/>
			<point x="483" y="160"/>
			<point x="440" y="138"/>
			<point x="388" y="138" type="curve" smooth="yes"/>
			<point x="302" y="138"/>
			<point x="243" y="207"/>
			<point x="243" y="345" type="curve" smooth="yes"/>
			<point x="243" y="483"/>
			<point x="302" y="552"/>
			<point x="387" y="552" type="curve" smooth="yes"/>
			<point x="440" y="552"/>
			<point x="483" y="532"/>
			<point x="521" y="504" type="curve"/>
			<point x="598" y="632" type="line"/>
			<point x="538" y="678"/>
			<point x="469" y="702"/>
			<point x="382" y="702" type="curve" smooth="yes"/>
			<point x="215" y="702"/>
			<point x="80" y="568"/>
		</contour>
		<contour>
			<point x="30" y="205" type="line"/>
			<point x="430" y="205" type="line"/>
			<point x="430" y="315" type="line"/>
			<point x="30" y="315" type="line"/>
		</contour>
		<contour>
			<point x="30" y="375" type="line"/>
			<point x="430" y="375" type="line"/>
			<point x="430" y="485" type="line"/>
			<point x="30" y="485" type="line"/>
		</contour>
	</outline>
</glyph>
<glyph name="guarani" format="2">
	<advance width="703"/>
	<unicode hex="20B2"/>
	<outline>
		<contour>
			<point x="45" y="345" type="curve" smooth="yes"/>
			<point x="45" y="122"/>
			<point x="204" y="-12"/>
			<point x="383" y="-12" type="curve" smooth="yes"/>
			<point x="479" y="-12"/>
			<point x="562" y="19"/>
			<point x="643" y="81" type="curve"/>
			<point x="489" y="149" type="line"/>
			<point x="455" y="134"/>
			<point x="418" y="128"/>
			<point x="390" y="128" type="curve" smooth="yes"/>
			<point x="286" y="128"/>
			<point x="208" y="207"/>
			<point x="208" y="345" type="curve" smooth="yes"/>
			<point x="208" y="483"/>
			<point x="289" y="554"/>
			<point x="391" y="554" type="curve" smooth="yes"/>
			<point x="448" y="554"/>
			<point x="499" y="534"/>
			<point x="547" y="501" type="curve"/>
			<point x="623" y="637" type="line"/>
			<point x="547" y="681"/>
			<point x="474" y="702"/>
			<point x="387" y="702" type="curve" smooth="yes"/>
			<point x="204" y="702"/>
			<point x="45" y="568"/>
		</contour>
		<contour>
			<point x="459" y="249" type="line"/>
			<point x="575" y="249" type="line"/>
			<point x="575" y="382" type="line"/>
			<point x="459" y="382" type="line"/>
		</contour>
		<contour>
			<point x="489" y="70" type="line"/>
			<point x="643" y="81" type="line"/>
			<point x="643" y="382" type="line"/>
			<point x="489" y="382" type="line"/>
		</contour>
		<contour>
			<point x="298" y="-126" type="line"/>
			<point x="438" y="-126" type="line"/>
			<point x="438" y="809" type="line"/>
			<point x="298" y="809" type="line"/>
		</contour>
	</outline>
</glyph>
<glyph name="cedi" format="2">
	<advance width="653"/>
	<unicode hex="20B5"/>
	<outline>
		<component base="C"/>
		<contour>
			<point x="295" y="-125" type="line"/>
			<point x="435" y="-125" type="line"/>
			<point x="435" y="810" type="line"/>
			<point x="295" y="810" type="line"/>
		</contour>
	</outline>
</glyph>
<glyph name="rupeeIndian" format="2">
	<advance width="659"/>
	<unicode hex="20B9"/>
	<outline>
		<contour>
			<point x="159" y="240" type="line"/>
			<point x="347" y="240" type="line" smooth="yes"/>
			<point x="492" y="240"/>
			<point x="604" y="322"/>
			<point x="604" y="460" type="curve" smooth="yes"/>
			<point x="604" y="604"/>
			<point x="492" y="690"/>
			<point x="347" y="690" type="curve" smooth="yes"/>
			<point x="159" y="690" type="line"/>
			<point x="159" y="550" type="line"/>
			<point x="332" y="550" type="line" smooth="yes"/>
			<point x="397" y="550"/>
			<point x="441" y="521"/>
			<point x="441" y="460" type="curve" smooth="yes"/>
			<point x="441" y="399"/>
			<point x="397" y="370"/>
			<point x="332" y="370" type="curve" smooth="yes"/>
			<point x="159" y="370" type="line"/>
		</contour>
		<contour>
			<point x="159" y="240" type="line"/>
			<point x="347" y="0" type="line"/>
			<point x="524" y="0" type="line"/>
			<point x="318" y="240" type="line"/>
		</contour>
		<contour>
			<point x="10" y="414" type="line"/>
			<point x="649" y="414" type="line"/>
			<point x="649" y="515" type="line"/>
			<point x="10" y="515" type="line"/>
		</contour>
		<contour>
			<point x="224" y="568" type="line"/>
			<point x="649" y="568" type="line"/>
			<point x="649" y="689" type="line"/>
			<point x="224" y="689" type="line"/>
		</contour>
	</outline>
</glyph>
<glyph name="manat" format="2">
	<advance width="724"/>
	<unicode hex="20BC"/>
	<outline>
		<component base="U" xScale="-1" yScale="-1" xOffset="724" yOffset="690"/>
		<contour>
			<point x="291" y="0" type="line"/>
			<point x="431" y="0" type="line"/>
			<point x="431" y="855" type="line"/>
			<point x="291" y="855" type="line"/>
		</contour>
	</outline>
</glyph>
<glyph name="ruble" format="2">
	<advance width="654"/>
	<unicode hex="20BD"/>
	<outline>
		<component base="P"/>
		<contour>
			<point x="10" y="39" type="line"/>
			<point x="364" y="39" type="line"/>
			<point x="364" y="160" type="line"/>
			<point x="10" y="160" type="line"/>
		</contour>
		<contour>
			<point x="10" y="209" type="line"/>
			<point x="284" y="209" type="line"/>
			<point x="284" y="330" type="line"/>
			<point x="10" y="330" type="line"/>
		</contour>
	</outline>
</glyph>
<glyph name="trademark" format="2">
	<advance width="940"/>
	<unicode hex="2122"/>
	<outline>
		<contour>
			<point x="30" y="590" type="line"/>
			<point x="360" y="590" type="line"/>
			<point x="360" y="690" type="line"/>
			<point x="30" y="690" type="line"/>
		</contour>
		<contour>
			<point x="140" y="290" type="line"/>
			<point x="250" y="290" type="line"/>
			<point x="250" y="690" type="line"/>
			<point x="140" y="690" type="line"/>
		</contour>
		<contour>
			<point x="430" y="290" type="line"/>
			<point x="530" y="290" type="line"/>
			<point x="530" y="690" type="line"/>
			<point x="430" y="690" type="line"/>
		</contour>
		<contour>
			<point x="498" y="690" type="line"/>
			<point x="600" y="369" type="line"/>
			<point x="674" y="369" type="line"/>
			<point x="674" y="426" type="line"/>
			<point x="590" y="690" type="line"/>
		</contour>
		<contour>
			<point x="620" y="426" type="line"/>
			<point x="620" y="369" type="line"/>
			<point x="694" y="369" type="line"/>
			<point x="796" y="690" type="line"/>
			<point x="704" y="690" type="line"/>
		</contour>
		<contour>
			<point x="764" y="290" type="line"/>
			<point x="864" y="290" type="line"/>
			<point x="864" y="690" type="line"/>
			<point x="764" y="690" type="line"/>
		</contour>
	</outline>
</glyph>
<glyph name="greaterequal" format="2">
	<advance width="600"/>
	<unicode hex="2265"/>
	<outline>
		<contour>
			<point x="90" y="60" type="line"/>
			<point x="532" y="60" type="line"/>
			<point x="532" y="194" type="line"/>
			<point x="90" y="194" type="line"/>
		</contour>
		<contour>
			<point x="90" y="179" type="line"/>
			<point x="532" y="307" type="line"/>
			<point x="532" y="399" type="line"/>
			<point x="422" y="399" type="line"/>
			<point x="90" y="323" type="line"/>
		</contour>
		<contour>
			<point x="90" y="437" type="line"/>
			<point x="422" y="363" type="line"/>
			<point x="532" y="363" type="line"/>
			<point x="532" y="449" type="line"/>
			<point x="90" y="577" type="line"/>
		</contour>
	</outline>
</glyph>
<glyph name="I.alt" format="2">
	<advance width="330"/>
	<anchor x="165" y="690" name="top"/>
	<anchor x="165" y="0" name="bottom"/>
	<anchor x="85" y="0" name="ogonek"/>
	<outline>
		<contour>
			<point x="85" y="0" type="line"/>
			<point x="245" y="0" type="line"/>
			<point x="245" y="690" type="line"/>
			<point x="85" y="690" type="line"/>
		</contour>
	</outline>
</glyph>
<glyph name=".notdef" format="2">
	<advance width="600"/>
	<outline>
		<contour>
			<point x="77.5" y="-185" type="line"/>
			<point x="217.5" y="-185" type="line"/>
			<point x="217.5" y="690" type="line"/>
			<point x="77.5" y="690" type="line"/>
		</contour>
		<contour>
			<point x="77.5" y="-185" type="line"/>
			<point x="522.5" y="-185" type="line"/>
			<point x="522.5" y="-65" type="line"/>
			<point x="77.5" y="-65" type="line"/>
		</contour>
		<contour>
			<point x="77.5" y="570" type="line"/>
			<point x="522.5" y="570" type="line"/>
			<point x="522.5" y="690" type="line"/>
			<point x="77.5" y="690" type="line"/>
		</contour>
		<contour>
			<point x="382.5" y="-185" type="line"/>
			<point x="522.5" y="-185" type="line"/>
			<point x="522.5" y="690" type="line"/>
			<point x="382.5" y="690" type="line"/>
		</contour>
	</outline>
</glyph>
<glyph name="dieresis.cap" format="2">
	<advance width="600"/>
	<anchor x="300" y="690" name="_top"/>
	<outline>
		<contour>
			<point x="123" y="830" type="curve" smooth="yes"/>
			<point x="123" y="785"/>
			<point x="154" y="755"/>
			<point x="200" y="755" type="curve" smooth="yes"/>
			<point x="246" y="755"/>
			<point x="277" y="785"/>
			<point x="277" y="830" type="curve" smooth="yes"/>
			<point x="277" y="875"/>
			<point x="246" y="905"/>
			<point x="200" y="905" type="curve" smooth="yes"/>
			<point x="154" y="905"/>
			<point x="123" y="875"/>
		</contour>
		<contour>
			<point x="324" y="830" type="curve" smooth="yes"/>
			<point x="324" y="785"/>
			<point x="355" y="755"/>
			<point x="401" y="755" type="curve" smooth="yes"/>
			<point x="447" y="755"/>
			<point x="478" y="785"/>
			<point x="478" y="830" type="curve" smooth="yes"/>
			<point x="478" y="875"/>
			<point x="447" y="905"/>
			<point x="401" y="905" type="curve" smooth="yes"/>
			<point x="355" y="905"/>
			<point x="324" y="875"/>
		</contour>
	</outline>
</glyph>
<glyph name="hungarumlaut.cap" format="2">
	<advance width="600"/>
	<anchor x="300" y="690" name="_top"/>
	<outline>
		<contour>
			<point x="145" y="750" type="line"/>
			<point x="245" y="750" type="line"/>
			<point x="355" y="885" type="line"/>
			<point x="215" y="885" type="line"/>
		</contour>
		<contour>
			<point x="335" y="750" type="line"/>
			<point x="435" y="750" type="line"/>
			<point x="555" y="885" type="line"/>
			<point x="415" y="885" type="line"/>
		</contour>
	</outline>
</glyph>
